#!OML:ASF H:\LiuWeirdWalks\Patient Classification 1\Patient 1\Session 1\male.ASF
:FULLY-SPECIFIED
:DEGREES
518
root 0.16952 17.6591 -7.2071 5.91959 -2.97901 -18.9865
lowerback 14.8038 -2.50326 -5.67318
upperback 2.67128 -4.639 -7.32572
thorax -5.63191 -2.22803 -3.69132
lowerneck -18.7698 2.65179 8.35598
upperneck 11.4105 0.51051 5.67289
head 6.59965 1.13557 0.568702
rclavicle -3.57812e-014 -3.18055e-015
rhumerus -13.9577 -34.5091 10.5734
rradius 32.5375
rwrist 5.11827
rhand -19.398 -3.94484
rfingers 7.12502
rthumb 6.92099 -33.8117
lclavicle -3.57812e-014 -3.18055e-015
lhumerus -27.0806 34.8123 49.6485
lradius 32.0466
lwrist 9.95417
lhand -20.847 -2.20518
lfingers 7.12502
lthumb 5.52209 27.7029
rfemur 6.0516 -3.5797 32.4843
rtibia 26.3615
rfoot -5.73522 0.944796
rtoes -22.466
lfemur -30.9239 7.38907 8.68099
ltibia 37.0512
lfoot -2.73631 9.59377
ltoes -11.0101
519
root 0.199573 17.6791 -7.14017 6.10822 -2.80382 -19.1809
lowerback 14.8225 -2.51252 -5.81632
upperback 2.63656 -4.68327 -7.4114
thorax -5.677 -2.24622 -3.6942
lowerneck -18.8105 2.66596 8.28784
upperneck 11.4217 0.523129 5.79533
head 6.61032 1.15103 0.621327
rclavicle -4.77083e-014 6.36111e-015
rhumerus -14.0702 -34.5529 10.6567
rradius 32.6526
rwrist 4.31597
rhand -19.1453 -3.70341
rfingers 7.12502
rthumb 7.16486 -33.5621
lclavicle -4.77083e-014 6.36111e-015
lhumerus -27.0363 34.6979 49.8779
lradius 31.9835
lwrist 9.94985
lhand -20.7896 -2.20274
lfingers 7.12502
lthumb 5.57749 27.7039
rfemur 5.9931 -3.59288 32.5707
rtibia 26.2229
rfoot -4.90563 1.2071
rtoes -22.7185
lfemur -30.9555 7.30554 8.77783
ltibia 37.0796
lfoot -2.91336 9.64553
ltoes -11.102
520
root 0.229042 17.7007 -7.07484 6.31594 -2.60486 -19.3797
lowerback 14.8196 -2.52621 -5.94882
upperback 2.60848 -4.72751 -7.47952
thorax -5.70224 -2.26469 -3.68504
lowerneck -18.8208 2.674 8.22408
upperneck 11.4017 0.533938 5.90749
head 6.60567 1.16288 0.668956
rclavicle 1.43125e-014 9.54166e-015
rhumerus -14.1691 -34.5099 10.7328
rradius 32.8165
rwrist 3.64563
rhand -18.6147 -3.11532
rfingers 7.12502
rthumb 7.67704 -32.956
lclavicle 1.43125e-014 9.54166e-015
lhumerus -27.0105 34.5762 50.0894
lradius 31.9574
lwrist 9.98602
lhand -20.7445 -2.20905
lfingers 7.12502
lthumb 5.62101 27.6964
rfemur 5.89715 -3.65064 32.6684
rtibia 26.0825
rfoot -4.02839 1.4656
rtoes -22.9276
lfemur -30.9967 7.20623 8.88477
ltibia 37.055
lfoot -3.05675 9.68798
ltoes -11.1567
521
root 0.258305 17.7239 -7.01072 6.53038 -2.40504 -19.5748
lowerback 14.8005 -2.53813 -6.07477
upperback 2.58975 -4.76489 -7.53637
thorax -5.70772 -2.2802 -3.66949
lowerneck -18.8797 2.67214 8.16037
upperneck 11.4114 0.523919 6.01526
head 6.6186 1.16652 0.713858
rclavicle 5.80451e-014 7.31528e-014
rhumerus -14.259 -34.4997 10.8244
rradius 32.8196
rwrist 3.7364
rhand -17.996 -2.84674
rfingers 7.12502
rthumb 8.27417 -32.6647
lclavicle 5.80451e-014 7.31528e-014
lhumerus -26.998 34.4703 50.2757
lradius 31.9661
lwrist 10.0322
lhand -20.7145 -2.21139
lfingers 7.12502
lthumb 5.64998 27.6933
rfemur 5.78508 -3.741 32.7605
rtibia 25.9329
rfoot -3.10153 1.72757
rtoes -23.0929
lfemur -31.0226 7.1042 8.99179
ltibia 36.9822
lfoot -3.1755 9.72536
ltoes -11.1754
522
root 0.287764 17.7486 -6.9478 6.74966 -2.21217 -19.7469
lowerback 14.7626 -2.54351 -6.19856
upperback 2.5853 -4.78973 -7.59398
thorax -5.68737 -2.29023 -3.65935
lowerneck -18.9671 2.67036 8.11944
upperneck 11.4077 0.508654 6.10426
head 6.63188 1.16685 0.748831
rclavicle 3.65764e-014 6.36111e-015
rhumerus -14.3649 -34.4728 10.9356
rradius 32.764
rwrist 4.24293
rhand -17.4775 -2.58242
rfingers 7.12502
rthumb 8.77453 -32.38
lclavicle 3.65764e-014 6.36111e-015
lhumerus -26.9679 34.3826 50.4474
lradius 32.0021
lwrist 10.0891
lhand -20.6882 -2.24272
lfingers 7.12502
lthumb 5.67535 27.6613
rfemur 5.66426 -3.86282 32.8202
rtibia 25.7669
rfoot -2.1263 2.00523
rtoes -23.2197
lfemur -31.0304 7.00421 9.07277
ltibia 36.867
lfoot -3.2754 9.7597
ltoes -11.1777
523
root 0.317623 17.7744 -6.88598 6.96669 -2.02546 -19.904
lowerback 14.7227 -2.54986 -6.31192
upperback 2.58438 -4.81334 -7.64867
thorax -5.66263 -2.29999 -3.6523
lowerneck -19.0687 2.65777 8.0621
upperneck 11.4426 0.473906 6.22118
head 6.6602 1.16167 0.793918
rclavicle -1.66979e-014 -6.36111e-014
rhumerus -14.4511 -34.496 11.0723
rradius 32.7507
rwrist 4.30697
rhand -17.1611 -2.32235
rfingers 7.12502
rthumb 9.07989 -32.1069
lclavicle -1.66979e-014 -6.36111e-014
lhumerus -26.957 34.3098 50.5762
lradius 32.0654
lwrist 10.183
lhand -20.6811 -2.28599
lfingers 7.12502
lthumb 5.68227 27.6178
rfemur 5.54915 -4.01525 32.854
rtibia 25.5743
rfoot -1.10561 2.30179
rtoes -23.3451
lfemur -31.0188 6.9102 9.1332
ltibia 36.7179
lfoot -3.36145 9.79251
ltoes -11.1746
524
root 0.347812 17.8009 -6.82514 7.1793 -1.86444 -20.0563
lowerback 14.6714 -2.54983 -6.39471
upperback 2.59439 -4.82163 -7.70541
thorax -5.62218 -2.30346 -3.66805
lowerneck -19.177 2.65263 8.05119
upperneck 11.4377 0.444636 6.304
head 6.67678 1.15642 0.820986
rclavicle -2.54444e-014 1.90833e-014
rhumerus -14.5307 -34.6729 11.2508
rradius 32.7897
rwrist 3.73713
rhand -17.1271 -2.07737
rfingers 7.12502
rthumb 9.11273 -31.8605
lclavicle -2.54444e-014 1.90833e-014
lhumerus -26.9344 34.2506 50.6768
lradius 32.1607
lwrist 10.2777
lhand -20.6862 -2.26405
lfingers 7.12502
lthumb 5.67731 27.6399
rfemur 5.4508 -4.17355 32.8715
rtibia 25.3489
rfoot -0.0413637 2.61407
rtoes -23.4879
lfemur -30.9799 6.82936 9.18524
ltibia 36.5471
lfoot -3.44291 9.84033
ltoes -11.1523
525
root 0.378255 17.8275 -6.76558 7.38353 -1.71682 -20.2181
lowerback 14.6243 -2.5523 -6.43673
upperback 2.60992 -4.82645 -7.75488
thorax -5.58081 -2.30613 -3.69922
lowerneck -19.2445 2.64765 8.04746
upperneck 11.3711 0.422871 6.38975
head 6.66653 1.15164 0.847435
rclavicle 6.04305e-014 5.40694e-014
rhumerus -14.622 -34.834 11.4352
rradius 32.6838
rwrist 3.99275
rhand -17.2302 -2.24253
rfingers 7.12502
rthumb 9.01323 -32.03
lclavicle 6.04305e-014 5.40694e-014
lhumerus -26.9139 34.2124 50.7379
lradius 32.2729
lwrist 10.3853
lhand -20.6967 -2.24122
lfingers 7.12502
lthumb 5.66715 27.663
rfemur 5.37784 -4.33887 32.8912
rtibia 25.0837
rfoot 1.05643 2.92832
rtoes -23.6489
lfemur -30.925 6.75349 9.2447
ltibia 36.3679
lfoot -3.52451 9.90581
ltoes -11.1067
526
root 0.40898 17.8532 -6.70737 7.57606 -1.57706 -20.3998
lowerback 14.5804 -2.55694 -6.42287
upperback 2.62784 -4.82521 -7.7933
thorax -5.54205 -2.3069 -3.75061
lowerneck -19.2783 2.64589 8.07313
upperneck 11.2776 0.409462 6.43983
head 6.64192 1.14702 0.857793
rclavicle -2.38542e-014 -1.59028e-014
rhumerus -14.7367 -34.9062 11.6229
rradius 32.4789
rwrist 5.13295
rhand -17.3837 -2.68969
rfingers 7.12502
rthumb 8.86514 -32.4835
lclavicle -2.38542e-014 -1.59028e-014
lhumerus -26.8918 34.1909 50.7594
lradius 32.3816
lwrist 10.4937
lhand -20.709 -2.20762
lfingers 7.12502
lthumb 5.65532 27.6969
rfemur 5.33495 -4.5054 32.9288
rtibia 24.7783
rfoot 2.16295 3.23825
rtoes -23.8666
lfemur -30.8612 6.6765 9.32444
ltibia 36.1924
lfoot -3.60938 9.99351
ltoes -11.0258
527
root 0.440008 17.8778 -6.64985 7.74745 -1.44358 -20.5911
lowerback 14.5511 -2.56337 -6.36244
upperback 2.64422 -4.82074 -7.8226
thorax -5.51591 -2.30672 -3.8181
lowerneck -19.2869 2.65709 8.15023
upperneck 11.1572 0.414401 6.43114
head 6.60443 1.14642 0.842405
rclavicle -2.22639e-014 -7.63333e-014
rhumerus -14.8477 -35.0242 11.8342
rradius 32.2022
rwrist 6.65569
rhand -17.3646 -3.41703
rfingers 7.12502
rthumb 8.88356 -33.21
lclavicle -2.22639e-014 -7.63333e-014
lhumerus -26.8801 34.1674 50.7417
lradius 32.4871
lwrist 10.5993
lhand -20.7337 -2.15903
lfingers 7.12502
lthumb 5.63143 27.7461
rfemur 5.33329 -4.67891 32.9723
rtibia 24.4354
rfoot 3.26459 3.5388
rtoes -24.1394
lfemur -30.783 6.58401 9.41336
ltibia 36.029
lfoot -3.70282 10.1128
ltoes -10.9287
528
root 0.471395 17.9011 -6.59327 7.90022 -1.3005 -20.7839
lowerback 14.5274 -2.57312 -6.26039
upperback 2.66401 -4.81412 -7.84082
thorax -5.49159 -2.30617 -3.89706
lowerneck -19.2971 2.65975 8.21964
upperneck 11.0527 0.411192 6.40417
head 6.57213 1.14064 0.821534
rclavicle -2.06736e-014 -3.18055e-014
rhumerus -14.9699 -35.0784 12.066
rradius 31.9258
rwrist 8.48576
rhand -16.9813 -4.20134
rfingers 7.12502
rthumb 9.25339 -33.9783
lclavicle -2.06736e-014 -3.18055e-014
lhumerus -26.8654 34.1518 50.6996
lradius 32.5767
lwrist 10.6748
lhand -20.7521 -2.12947
lfingers 7.12502
lthumb 5.6137 27.7762
rfemur 5.3616 -4.86843 33.0188
rtibia 24.0661
rfoot 4.35749 3.83186
rtoes -24.4309
lfemur -30.7068 6.46781 9.50203
ltibia 35.8813
lfoot -3.80277 10.2549
ltoes -10.8132
529
root 0.503291 17.923 -6.53721 8.03087 -1.14338 -20.958
lowerback 14.5198 -2.58399 -6.13572
upperback 2.68011 -4.80733 -7.85021
thorax -5.48114 -2.30557 -3.9785
lowerneck -19.2853 2.6488 8.27166
upperneck 10.9376 0.400355 6.35993
head 6.53244 1.12786 0.796411
rclavicle -5.24792e-014 -8.5875e-014
rhumerus -15.0586 -35.1662 12.3335
rradius 31.7403
rwrist 9.64854
rhand -16.433 -4.67759
rfingers 7.12502
rthumb 9.7824 -34.4304
lclavicle -5.24792e-014 -8.5875e-014
lhumerus -26.8787 34.1081 50.6364
lradius 32.6762
lwrist 10.7355
lhand -20.7527 -2.11272
lfingers 7.12502
lthumb 5.61312 27.7929
rfemur 5.41672 -5.07514 33.0483
rtibia 23.686
rfoot 5.43621 4.10821
rtoes -24.719
lfemur -30.6315 6.32022 9.56812
ltibia 35.7495
lfoot -3.91603 10.4161
ltoes -10.6738
530
root 0.535985 17.9437 -6.48139 8.14399 -0.982353 -21.0872
lowerback 14.5184 -2.59569 -6.02216
upperback 2.70005 -4.8033 -7.85531
thorax -5.46873 -2.30603 -4.04845
lowerneck -19.2952 2.62817 8.28781
upperneck 10.833 0.382151 6.31731
head 6.49937 1.11098 0.777004
rclavicle 9.54166e-015 -9.54166e-015
rhumerus -15.1343 -35.2611 12.6267
rradius 31.5553
rwrist 10.706
rhand -16.0156 -5.15014
rfingers 7.12502
rthumb 10.1851 -34.8836
lclavicle 9.54166e-015 -9.54166e-015
lhumerus -26.9065 34.0594 50.5595
lradius 32.782
lwrist 10.7679
lhand -20.7399 -2.09519
lfingers 7.12502
lthumb 5.62551 27.8101
rfemur 5.48496 -5.29114 33.0309
rtibia 23.3156
rfoot 6.50074 4.37261
rtoes -24.9548
lfemur -30.5534 6.13417 9.58399
ltibia 35.632
lfoot -4.04913 10.5996
ltoes -10.5087
531
root 0.569347 17.9629 -6.42595 8.24626 -0.803843 -21.1729
lowerback 14.5236 -2.61307 -5.92347
upperback 2.72017 -4.80897 -7.85146
thorax -5.45797 -2.31069 -4.09835
lowerneck -19.3066 2.61169 8.29951
upperneck 10.7284 0.372518 6.26162
head 6.46643 1.09692 0.755044
rclavicle 1.74931e-014 4.77083e-014
rhumerus -15.1191 -35.3969 12.9147
rradius 31.5368
rwrist 10.3511
rhand -15.7794 -5.1675
rfingers 7.12502
rthumb 10.413 -34.8896
lclavicle 1.74931e-014 4.77083e-014
lhumerus -26.963 34.0141 50.4662
lradius 32.9019
lwrist 10.7914
lhand -20.7101 -2.1037
lfingers 7.12502
lthumb 5.65425 27.8009
rfemur 5.54801 -5.50876 32.9773
rtibia 22.9742
rfoot 7.54385 4.59802
rtoes -25.1301
lfemur -30.4861 5.90882 9.55352
ltibia 35.528
lfoot -4.21355 10.7881
ltoes -10.2961
532
root 0.603511 17.9803 -6.37067 8.33899 -0.616955 -21.2172
lowerback 14.5222 -2.62864 -5.84069
upperback 2.74371 -4.81291 -7.83898
thorax -5.43776 -2.31422 -4.13068
lowerneck -19.3094 2.59915 8.32998
upperneck 10.6173 0.369472 6.17463
head 6.42994 1.08362 0.720581
rclavicle 1.90833e-014 5.725e-014
rhumerus -15.1159 -35.4235 13.2033
rradius 31.536
rwrist 10.1692
rhand -15.7386 -5.07496
rfingers 7.12502
rthumb 10.4523 -34.7951
lclavicle 1.90833e-014 5.725e-014
lhumerus -27.0228 33.9635 50.3697
lradius 33.0224
lwrist 10.8185
lhand -20.6798 -2.0741
lfingers 7.12502
lthumb 5.68354 27.8297
rfemur 5.59804 -5.70831 32.8919
rtibia 22.6821
rfoot 8.55291 4.76876
rtoes -25.2312
lfemur -30.4227 5.65907 9.48007
ltibia 35.4366
lfoot -4.41932 10.9652
ltoes -10.0272
